<?xml version="1.0" encoding="UTF-8"?>
<svg version="1.1" xmlns="http://www.w3.org/2000/svg" width="576" height="483">
<path d="M0 0 C0.8667154 -0.00523668 1.7334308 -0.01047336 2.62641031 -0.01586872 C5.54202743 -0.03091727 8.45746981 -0.03157495 11.37312317 -0.03224182 C13.45908405 -0.03986018 15.5450421 -0.04828712 17.6309967 -0.0574646 C23.30680041 -0.07945174 28.98255023 -0.08821447 34.65839171 -0.09329104 C38.20381993 -0.09693045 41.74923394 -0.10316841 45.29465675 -0.11029243 C57.66212715 -0.13480414 70.02955551 -0.14784199 82.39704895 -0.15138245 C93.92652002 -0.15501631 105.45572463 -0.18489678 116.98511428 -0.22678703 C126.88076859 -0.26148122 136.77633461 -0.27693076 146.67204934 -0.27762848 C152.5834407 -0.27842176 158.49456096 -0.28718368 164.40588951 -0.31562614 C169.96850623 -0.34179068 175.53062685 -0.34402066 181.09327698 -0.3279705 C183.1330403 -0.32615459 185.17283202 -0.33285949 187.21253395 -0.34878922 C190.00181321 -0.36924157 192.78935552 -0.35870286 195.57861328 -0.34057617 C196.38203618 -0.35377614 197.18545907 -0.36697611 198.01322812 -0.38057607 C203.9830197 -0.29222928 207.94866776 1.56342231 212.60676575 5.27415466 C219.98023108 13.46689393 221.50830516 27.5207489 224.04426575 37.96165466 C226.4006746 47.53444669 228.86101516 57.05923432 231.563797 66.53977966 C231.90797668 67.77212341 232.25215637 69.00446716 232.60676575 70.27415466 C232.80963196 70.94897888 233.01249817 71.6238031 233.22151184 72.31907654 C235.42466906 80.10098858 233.25277144 85.62514244 230.641922 92.98118591 C227.91004126 101.67165935 227.29636437 109.59607981 227.35676575 118.71165466 C227.34903137 119.87503357 227.341297 121.03841248 227.33332825 122.23704529 C227.34717966 128.39053513 227.71017362 134.0895011 229.17805481 140.07518005 C229.65437387 142.51834961 229.67555257 144.79100493 229.60676575 147.27415466 C228.86442688 147.37437927 228.12208801 147.47460388 227.35725403 147.5778656 C223.81509355 148.05755016 220.27343699 148.54087162 216.73176575 149.02415466 C215.56645325 149.18142029 214.40114075 149.33868591 213.20051575 149.50071716 C200.30656125 151.26515304 187.47668853 153.29416654 174.60676575 155.27415466 C206.28676575 155.76915466 206.28676575 155.76915466 238.60676575 156.27415466 C238.44964053 141.90091171 238.44964053 141.90091171 238.24641418 127.52830505 C238.04660292 106.38637033 241.21965014 88.22192768 256.4309845 72.42259216 C257.14899231 71.71360779 257.86700012 71.00462341 258.60676575 70.27415466 C259.17008606 69.68892029 259.73340637 69.10368591 260.313797 68.50071716 C267.58220758 61.53294643 278.04394662 58.14139195 287.91706848 58.08128357 C288.65900955 58.07310608 289.40095062 58.06492859 290.16537476 58.0565033 C292.62369493 58.0316737 295.08195708 58.01513213 297.5403595 58.00071716 C298.38317034 57.99539349 299.22598118 57.99006981 300.09433174 57.98458481 C304.56257848 57.95785318 309.03079739 57.93848553 313.49909973 57.92405701 C317.18001926 57.91076527 320.86037817 57.8830018 324.54109192 57.84202576 C328.99909414 57.79240344 333.45659132 57.76789898 337.91485786 57.76082993 C339.60476761 57.7541621 341.29466809 57.73905823 342.98441887 57.71493912 C355.73021791 57.5435111 366.17725145 59.16231021 376.60676575 67.27415466 C377.29125793 67.79235779 377.97575012 68.31056091 378.6809845 68.84446716 C390.71852415 78.61347218 397.33140114 93.17644509 399.60676575 108.27415466 C399.8501292 111.6257661 399.86154668 114.95445436 399.83381653 118.31370544 C399.83410858 119.26126205 399.83440063 120.20881866 399.83470154 121.18508911 C399.83332145 124.27997887 399.81782314 127.37462008 399.80207825 130.46946716 C399.79834341 132.62993742 399.79549866 134.79040939 399.79350281 136.95088196 C399.78590341 142.60940815 399.76628695 148.26783004 399.74409485 153.92631531 C399.72355651 159.71151824 399.71448407 165.4967382 399.704422 171.28196716 C399.68303732 182.61274191 399.64894639 193.94343958 399.60676575 205.27415466 C369.4231808 205.36543648 339.2396006 205.43620958 309.05590805 205.47841598 C305.49115466 205.48341871 301.92640154 205.48859601 298.36164856 205.49388123 C297.29714681 205.49545509 297.29714681 205.49545509 296.21113998 205.49706075 C284.7254844 205.5144584 273.23990903 205.54599253 261.75430101 205.58276585 C249.96597802 205.62019313 238.177697 205.64239429 226.38931704 205.65050864 C219.76922177 205.65550105 213.14927566 205.66799009 206.52923584 205.69707489 C200.29781309 205.72423043 194.06664705 205.73259921 187.83517075 205.72658539 C185.54868551 205.72768555 183.26219166 205.73563833 180.9757576 205.75097656 C177.85159123 205.77090605 174.72839146 205.76608242 171.60420227 205.75517273 C170.70145931 205.7668241 169.79871634 205.77847546 168.86861753 205.7904799 C162.06028854 205.72630906 156.59107378 204.1201936 151.58332825 199.34446716 C146.08507753 191.43079995 144.80045178 184.91090709 145.60676575 175.27415466 C147.31762089 169.23584238 150.94948759 164.4340536 155.60676575 160.27415466 C157.58676575 159.28415466 159.56676575 158.29415466 161.60676575 157.27415466 C154.01676575 158.26415466 146.42676575 159.25415466 138.60676575 160.27415466 C134.04687208 173.81133899 133.36480387 181.81506335 138.60676575 195.27415466 C139.80908737 197.45133165 141.10250395 199.28638014 142.60676575 201.27415466 C142.60676575 201.93415466 142.60676575 202.59415466 142.60676575 203.27415466 C129.9500633 203.32052565 117.29338112 203.35604814 104.63661098 203.37777901 C98.75936313 203.3882095 92.88217347 203.40235543 87.00495911 203.42503357 C81.33154797 203.44678793 75.65819275 203.45872882 69.98474312 203.46390915 C67.82184532 203.46760023 65.65895053 203.47480797 63.49607658 203.48561478 C60.46316321 203.50016401 57.43047997 203.50213115 54.39753723 203.50120544 C53.50633179 203.508396 52.61512634 203.51558655 51.69691467 203.522995 C44.26580972 203.49850409 37.84308668 202.60113262 32.28401184 197.26780701 C25.98305151 189.7781939 24.75545128 177.4777924 22.48176575 168.14915466 C22.06490412 166.45851098 21.64747996 164.76800593 21.22956848 163.07762146 C20.25896074 159.14672915 19.29236033 155.21487447 18.32795715 151.28245544 C16.52824677 143.9478293 14.71667264 136.61615373 12.90457726 129.28458023 C6.94703969 105.17919646 0.99112737 81.07330477 -4.89323425 56.94993591 C-5.28014183 55.36409447 -5.28014183 55.36409447 -5.67486572 53.74621582 C-6.83024924 49.00851565 -7.98355273 44.27032417 -9.13322449 39.53123474 C-10.93470938 32.12104948 -12.74949076 24.72950369 -14.85466003 17.39793396 C-16.102231 12.478342 -16.01545942 9.41132479 -13.58073425 4.96165466 C-9.48964707 -0.06453817 -6.06826445 -0.0179914 0 0 Z " fill="#FEFEFE" transform="translate(176.3932342529297,277.72584533691406)"/>
<path d="M0 0 C1.11291161 -0.01226624 1.11291161 -0.01226624 2.24830627 -0.02478027 C4.70662645 -0.04960987 7.1648886 -0.06615144 9.62329102 -0.08056641 C10.46610186 -0.08589008 11.3089127 -0.09121376 12.17726326 -0.09669876 C16.64551 -0.12343039 21.11372891 -0.14279804 25.58203125 -0.15722656 C29.26295078 -0.1705183 32.94330969 -0.19828177 36.62402344 -0.23925781 C41.08202566 -0.28888013 45.53952284 -0.31338458 49.99778938 -0.32045364 C51.68769913 -0.32712147 53.37759961 -0.34222534 55.06735039 -0.36634445 C67.81314943 -0.53777247 78.26018297 1.08102664 88.68969727 9.19287109 C89.37418945 9.71107422 90.05868164 10.22927734 90.76391602 10.76318359 C102.80145567 20.53218861 109.41433266 35.09516152 111.68969727 50.19287109 C111.93306072 53.54448253 111.94447819 56.87317079 111.91674805 60.23242188 C111.9170401 61.17997849 111.91733215 62.1275351 111.91763306 63.10380554 C111.91625297 66.1986953 111.90075465 69.29333652 111.88500977 72.38818359 C111.88127493 74.54865385 111.87843018 76.70912582 111.87643433 78.86959839 C111.86883493 84.52812458 111.84921847 90.18654647 111.82702637 95.84503174 C111.80648803 101.63023467 111.79741559 107.41545463 111.78735352 113.20068359 C111.76596884 124.53145834 111.73187791 135.86215601 111.68969727 147.19287109 C81.50611232 147.28415291 51.32253211 147.35492601 21.13883957 147.39713241 C17.57408618 147.40213514 14.00933306 147.40731244 10.44458008 147.41259766 C9.38007833 147.41417152 9.38007833 147.41417152 8.2940715 147.41577718 C-3.19158408 147.43317483 -14.67715945 147.46470896 -26.16276747 147.50148228 C-37.95109046 147.53890956 -49.73937148 147.56111072 -61.52775145 147.56922507 C-68.14784671 147.57421749 -74.76779283 147.58670653 -81.38783264 147.61579132 C-87.61925539 147.64294686 -93.85042143 147.65131564 -100.08189774 147.64530182 C-102.36838298 147.64640198 -104.65487682 147.65435476 -106.94131088 147.66969299 C-110.06547725 147.68962248 -113.18867702 147.68479885 -116.31286621 147.67388916 C-117.66698066 147.69136621 -117.66698066 147.69136621 -119.04845095 147.70919633 C-125.85677994 147.64502549 -131.3259947 146.03891003 -136.33374023 141.26318359 C-141.83199095 133.34951638 -143.1166167 126.82962352 -142.31030273 117.19287109 C-140.47247101 110.70640618 -136.39653023 104.87530753 -130.71647644 101.14659119 C-122.95891463 97.04906846 -114.75864175 97.68816015 -106.24389648 97.80224609 C-104.59766837 97.80971846 -102.95143128 97.81540668 -101.30519104 97.81939697 C-96.99944948 97.8345751 -92.69425877 97.87378786 -88.38873291 97.91821289 C-83.98441008 97.95933578 -79.57999712 97.97744411 -75.17553711 97.99755859 C-66.55354123 98.04029107 -57.93199075 98.10844562 -49.31030273 98.19287109 C-49.34172363 96.23619507 -49.34172363 96.23619507 -49.3737793 94.23999023 C-49.44715313 89.31790507 -49.49245026 84.39586628 -49.5300293 79.47338867 C-49.54992604 77.35839665 -49.57705338 75.243458 -49.61206055 73.12866211 C-49.97385747 50.68129136 -47.7678176 31.25242015 -31.48608398 14.34130859 C-30.76807617 13.63232422 -30.05006836 12.92333984 -29.31030273 12.19287109 C-28.74698242 11.60763672 -28.18366211 11.02240234 -27.60327148 10.41943359 C-20.3348609 3.45166286 -9.87312186 0.06010838 0 0 Z " fill="#ED722B" transform="translate(464.310302734375,335.80712890625)"/>
<path d="M0 0 C0.72058594 -0.02835938 1.44117188 -0.05671875 2.18359375 -0.0859375 C5.72479628 0.60020683 7.78472649 2.09752441 10.5625 4.375 C12.28515625 7.40625 12.28515625 7.40625 13.625 10.875 C14.06972656 11.9990625 14.51445312 13.123125 14.97265625 14.28125 C15.2142749 14.91095703 15.45589355 15.54066406 15.70483398 16.18945312 C16.73355722 18.81089645 17.82298548 21.40389301 18.9140625 24 C21.66877568 30.58621737 24.27915231 37.22487486 26.875 43.875 C27.85457108 46.37665425 28.83541229 48.87780967 29.81640625 51.37890625 C30.28965332 52.58562988 30.76290039 53.79235352 31.25048828 55.03564453 C32.92572342 59.29948269 34.61272903 63.55839001 36.3125 67.8125 C36.60753418 68.55411377 36.90256836 69.29572754 37.20654297 70.05981445 C39.21144658 75.07510357 41.26200505 80.0702133 43.33511353 85.05760193 C44.71607654 88.38432469 46.08794261 91.71476947 47.45935059 95.04544067 C48.14674733 96.708074 48.83832285 98.36898652 49.53430176 100.02804565 C50.52179461 102.38293009 51.49455744 104.7434521 52.46484375 107.10546875 C52.76239059 107.80484558 53.05993744 108.50422241 53.36650085 109.22479248 C55.93074255 115.53742282 57.68685402 122.03330651 55.29296875 128.6328125 C52.27804733 133.82068494 47.27762299 135.27297028 41.875 137.25 C40.81063721 137.66580322 39.74627441 138.08160645 38.6496582 138.51000977 C36.41035968 139.38342979 34.16666102 140.24564317 31.91894531 141.09716797 C27.6945287 142.70544528 23.50311683 144.38980024 19.31079102 146.07958984 C16.21699994 147.32579268 13.11871428 148.56024319 10.01953125 149.79296875 C4.32159917 152.06531142 -1.36238443 154.3707471 -7.04199219 156.68847656 C-9.36592337 157.63674363 -11.69077669 158.58275433 -14.01660156 159.52636719 C-18.73732326 161.44316565 -23.45102724 163.36481639 -28.12109375 165.40234375 C-41.97008256 171.38833517 -41.97008256 171.38833517 -48.4375 169.375 C-53.51067415 165.9410507 -55.75246448 162.52931049 -57.9375 156.8125 C-58.25444824 156.02528564 -58.57139648 155.23807129 -58.89794922 154.42700195 C-60.09980898 151.41793599 -61.26908271 148.39721421 -62.4375 145.375 C-62.98041002 143.97966814 -63.52372997 142.58449573 -64.06738281 141.18945312 C-69.09597177 128.28157088 -69.09597177 128.28157088 -71.33789062 122.44506836 C-74.39367073 114.5056772 -77.57478713 106.65276559 -80.96386719 98.84790039 C-83.63803917 92.54569753 -86.05750148 86.14473347 -88.5 79.75 C-89.5095954 77.11115992 -90.52152306 74.47322906 -91.53515625 71.8359375 C-91.77811935 71.20130081 -92.02108246 70.56666412 -92.27140808 69.91279602 C-94.21105208 64.87779448 -96.31243547 59.92334821 -98.49755859 54.99047852 C-100.01759376 50.76083262 -100.28931489 46.78009984 -99.4375 42.375 C-95.73507214 35.27867994 -86.38581201 32.83461928 -79.2734375 30.1328125 C-78.51890289 29.8419577 -77.76436829 29.55110291 -76.98696899 29.25143433 C-74.59690631 28.33052414 -72.20491174 27.41478844 -69.8125 26.5 C-60.07151039 22.76885487 -50.39101215 18.98017317 -40.82324219 14.82177734 C-34.89400632 12.28812781 -28.88325757 9.96352397 -22.875 7.625 C-21.63207786 7.13953689 -20.3892391 6.65386027 -19.14648438 6.16796875 C-16.88250835 5.28308318 -14.61815473 4.39916251 -12.35327148 3.51660156 C-10.46102001 2.77573512 -8.57453961 2.01988934 -6.6953125 1.24658203 C-4.33287511 0.33461172 -2.52325719 0.04497785 0 0 Z " fill="#FDFCFC" transform="translate(191.4375,-0.375)"/>
<path d="M0 0 C0.8667154 -0.00523668 1.7334308 -0.01047336 2.62641031 -0.01586872 C5.54202743 -0.03091727 8.45746981 -0.03157495 11.37312317 -0.03224182 C13.45908405 -0.03986018 15.5450421 -0.04828712 17.6309967 -0.0574646 C23.30680041 -0.07945174 28.98255023 -0.08821447 34.65839171 -0.09329104 C38.20381993 -0.09693045 41.74923394 -0.10316841 45.29465675 -0.11029243 C57.66212715 -0.13480414 70.02955551 -0.14784199 82.39704895 -0.15138245 C93.92652002 -0.15501631 105.45572463 -0.18489678 116.98511428 -0.22678703 C126.88076859 -0.26148122 136.77633461 -0.27693076 146.67204934 -0.27762848 C152.5834407 -0.27842176 158.49456096 -0.28718368 164.40588951 -0.31562614 C169.96850623 -0.34179068 175.53062685 -0.34402066 181.09327698 -0.3279705 C183.1330403 -0.32615459 185.17283202 -0.33285949 187.21253395 -0.34878922 C190.00181321 -0.36924157 192.78935552 -0.35870286 195.57861328 -0.34057617 C196.38203618 -0.35377614 197.18545907 -0.36697611 198.01322812 -0.38057607 C203.9830197 -0.29222928 207.94866776 1.56342231 212.60676575 5.27415466 C219.98023108 13.46689393 221.50830516 27.5207489 224.04426575 37.96165466 C226.4006746 47.53444669 228.86101516 57.05923432 231.563797 66.53977966 C231.90797668 67.77212341 232.25215637 69.00446716 232.60676575 70.27415466 C232.80963196 70.94897888 233.01249817 71.6238031 233.22151184 72.31907654 C235.42466906 80.10098858 233.25277144 85.62514244 230.641922 92.98118591 C228.18491428 100.79725196 227.27475318 108.15716154 227.04426575 116.33665466 C226.83911754 122.71370845 226.50749784 128.95414187 225.60676575 135.27415466 C223.41613473 131.98820814 222.590099 128.93653403 221.65364075 125.16868591 C221.4729303 124.4609201 221.29221985 123.7531543 221.10603333 123.02394104 C220.51744348 120.71286957 219.93708536 118.39981529 219.35676575 116.08665466 C218.9513361 114.48895414 218.54540863 112.89137987 218.13899231 111.29393005 C215.60156982 101.30221118 213.11385477 91.29808654 210.63288879 81.29222107 C209.05316475 74.95684082 207.36024178 68.66260573 205.579422 62.38108826 C203.22548139 54.03101208 201.08547943 45.62504795 198.92927551 37.22215271 C198.64237854 36.10622742 198.35548157 34.99030212 198.05989075 33.84056091 C197.80368958 32.83968445 197.5474884 31.83880798 197.28352356 30.80760193 C196.78612487 28.9455867 196.21623323 27.10255712 195.60676575 25.27415466 C134.88676575 24.94415466 74.16676575 24.61415466 11.60676575 24.27415466 C13.91676575 32.85415466 16.22676575 41.43415466 18.60676575 50.27415466 C21.86147458 63.02729947 24.96417366 75.78168705 27.85163879 88.62083435 C29.72687461 96.7999909 31.78146985 104.92617291 33.876297 113.05149841 C34.16978531 114.19173965 34.46327362 115.3319809 34.76565552 116.5067749 C36.26297401 122.31780936 37.76976165 128.12619241 39.28865051 133.93162537 C39.8506429 136.10303529 40.41241955 138.27450107 40.97395325 140.44602966 C41.2392836 141.44814987 41.50461395 142.45027008 41.77798462 143.48275757 C42.0190947 144.42035416 42.26020477 145.35795074 42.50862122 146.32395935 C42.72146759 147.13822388 42.93431396 147.9524884 43.15361023 148.79142761 C43.60676575 151.27415466 43.60676575 151.27415466 43.60676575 157.27415466 C74.95676575 157.27415466 106.30676575 157.27415466 138.60676575 157.27415466 C137.89527062 160.83163032 137.08746019 164.07707737 136.04426575 167.52415466 C133.23247719 177.96396366 134.44727304 187.7421003 139.76301575 197.36790466 C140.67435019 198.69584914 141.63487322 199.98986811 142.60676575 201.27415466 C142.60676575 201.93415466 142.60676575 202.59415466 142.60676575 203.27415466 C129.9500633 203.32052565 117.29338112 203.35604814 104.63661098 203.37777901 C98.75936313 203.3882095 92.88217347 203.40235543 87.00495911 203.42503357 C81.33154797 203.44678793 75.65819275 203.45872882 69.98474312 203.46390915 C67.82184532 203.46760023 65.65895053 203.47480797 63.49607658 203.48561478 C60.46316321 203.50016401 57.43047997 203.50213115 54.39753723 203.50120544 C53.50633179 203.508396 52.61512634 203.51558655 51.69691467 203.522995 C44.26580972 203.49850409 37.84308668 202.60113262 32.28401184 197.26780701 C25.98305151 189.7781939 24.75545128 177.4777924 22.48176575 168.14915466 C22.06490412 166.45851098 21.64747996 164.76800593 21.22956848 163.07762146 C20.25896074 159.14672915 19.29236033 155.21487447 18.32795715 151.28245544 C16.52824677 143.9478293 14.71667264 136.61615373 12.90457726 129.28458023 C6.94703969 105.17919646 0.99112737 81.07330477 -4.89323425 56.94993591 C-5.28014183 55.36409447 -5.28014183 55.36409447 -5.67486572 53.74621582 C-6.83024924 49.00851565 -7.98355273 44.27032417 -9.13322449 39.53123474 C-10.93470938 32.12104948 -12.74949076 24.72950369 -14.85466003 17.39793396 C-16.102231 12.478342 -16.01545942 9.41132479 -13.58073425 4.96165466 C-9.48964707 -0.06453817 -6.06826445 -0.0179914 0 0 Z " fill="#48484A" transform="translate(176.3932342529297,277.72584533691406)"/>
<path d="M0 0 C1.37002866 1.14799823 2.7255255 2.31367051 4.0625 3.5 C4.65160156 3.99628906 5.24070312 4.49257812 5.84765625 5.00390625 C19.78236431 17.66893704 25.97714541 35.84318275 27.24609375 54.1484375 C27.80213296 74.36209823 20.23732208 92.5522268 6.48828125 107.15625 C0.06491625 113.36239975 -6.88980886 117.74512394 -15 121.375 C-15.63623291 121.66141357 -16.27246582 121.94782715 -16.92797852 122.24291992 C-32.90891776 129.00072521 -52.88217288 128.72409157 -68.9375 122.5 C-79.9473519 117.92685279 -88.90401131 111.30567901 -96.9375 102.5 C-96.9375 101.84 -96.9375 101.18 -96.9375 100.5 C-97.5975 100.5 -98.2575 100.5 -98.9375 100.5 C-111.80673599 83.3978365 -115.21760152 63.16000605 -112.65332031 42.17431641 C-109.4292621 23.93202457 -98.01844617 8.03112329 -83.07421875 -2.53125 C-77.90475754 -5.77584334 -72.63265607 -8.31709006 -66.9375 -10.5 C-66.05320312 -10.8403125 -65.16890625 -11.180625 -64.2578125 -11.53125 C-42.79263934 -18.25078247 -17.74379119 -13.37562528 0 0 Z " fill="#ED722B" transform="translate(538.9375,197.5)"/>
<path d="M0 0 C4.1455273 2.75455345 6.43702568 5.84691546 9.01953125 10.05859375 C9.80512759 11.31859197 10.59249933 12.57748442 11.38134766 13.83544922 C12.01172943 14.84511749 12.01172943 14.84511749 12.65484619 15.87518311 C15.06329692 19.67959326 17.57165739 23.41725675 20.07421875 27.16015625 C20.87295158 28.35653717 20.87295158 28.35653717 21.68782043 29.5770874 C22.7898154 31.2274106 23.8922024 32.87747209 24.9949646 34.52728271 C26.71813929 37.10839403 28.43638382 39.69272973 30.15356445 42.27783203 C34.97915781 49.53532814 39.80569364 56.78230099 44.84375 63.89453125 C45.51059814 64.8477124 46.17744629 65.80089355 46.86450195 66.78295898 C48.03279499 68.44410365 49.21993405 70.09224587 50.43041992 71.72290039 C53.00040858 75.40416851 54.40912766 78.12632809 54.26171875 82.6875 C53.45078619 86.97326235 51.64965524 88.8910603 48.14013672 91.3449707 C47.14264404 91.97858521 47.14264404 91.97858521 46.125 92.625 C45.43809082 93.09317139 44.75118164 93.56134277 44.04345703 94.04370117 C42.04730634 95.3933527 40.03026567 96.70241829 38 98 C37.10796875 98.58136719 36.2159375 99.16273438 35.296875 99.76171875 C33.63624347 100.82505862 31.96358569 101.86978043 30.28125 102.8984375 C27.44991585 104.71183961 24.71270328 106.59794724 21.96875 108.5390625 C21.05109863 109.17803467 20.13344727 109.81700684 19.18798828 110.4753418 C17.34660533 111.75977113 15.51626039 113.06020764 13.69873047 114.37817383 C8.84357872 117.73304648 4.98694364 120.04555611 -1.04711914 119.53588867 C-6.74067853 117.97352302 -9.67352838 111.80523236 -12.6875 107.125 C-13.56624918 105.78375125 -14.44515998 104.44260837 -15.32421875 103.1015625 C-15.76813965 102.4199707 -16.21206055 101.73837891 -16.66943359 101.03613281 C-18.75667456 97.84207966 -20.87918601 94.67181465 -23 91.5 C-23.83091726 90.25403166 -24.66164584 89.00793749 -25.4921875 87.76171875 C-25.90436523 87.14345215 -26.31654297 86.52518555 -26.74121094 85.88818359 C-28.01757812 83.97363281 -29.29394531 82.05908203 -30.5703125 80.14453125 C-30.99320557 79.51023193 -31.41609863 78.87593262 -31.85180664 78.22241211 C-32.69749739 76.9537949 -33.54303888 75.68507817 -34.38842773 74.41625977 C-36.28544333 71.56942963 -38.18483302 68.72430514 -40.08984375 65.8828125 C-41.39128098 63.93967651 -42.68572195 61.99183398 -43.97265625 60.0390625 C-45.45258799 57.82059065 -46.95737357 55.63760624 -48.49609375 53.4609375 C-56.39467143 42.08722919 -56.39467143 42.08722919 -55.609375 35.81640625 C-52.39421679 26.23276157 -35.30354437 18.83685308 -27.00830078 13.33349609 C-23.5854692 11.06076255 -20.16803291 8.77994109 -16.75 6.5 C-15.51564921 5.67704701 -14.28127593 4.85412778 -13.046875 4.03125 C-12.04140625 3.3609375 -11.0359375 2.690625 -10 2 C-6.2626144 -0.4915904 -4.42668417 -0.45793285 0 0 Z " fill="#2A3641" transform="translate(55,107)"/>
<path d="M0 0 C0.72058594 -0.02835938 1.44117188 -0.05671875 2.18359375 -0.0859375 C5.72479628 0.60020683 7.78472649 2.09752441 10.5625 4.375 C12.28515625 7.40625 12.28515625 7.40625 13.625 10.875 C14.06972656 11.9990625 14.51445312 13.123125 14.97265625 14.28125 C15.2142749 14.91095703 15.45589355 15.54066406 15.70483398 16.18945312 C16.73355722 18.81089645 17.82298548 21.40389301 18.9140625 24 C21.66877568 30.58621737 24.27915231 37.22487486 26.875 43.875 C27.85457108 46.37665425 28.83541229 48.87780967 29.81640625 51.37890625 C30.28965332 52.58562988 30.76290039 53.79235352 31.25048828 55.03564453 C32.92572342 59.29948269 34.61272903 63.55839001 36.3125 67.8125 C36.60753418 68.55411377 36.90256836 69.29572754 37.20654297 70.05981445 C39.21144658 75.07510357 41.26200505 80.0702133 43.33511353 85.05760193 C44.71607654 88.38432469 46.08794261 91.71476947 47.45935059 95.04544067 C48.14674733 96.708074 48.83832285 98.36898652 49.53430176 100.02804565 C50.52179461 102.38293009 51.49455744 104.7434521 52.46484375 107.10546875 C52.76239059 107.80484558 53.05993744 108.50422241 53.36650085 109.22479248 C55.93074255 115.53742282 57.68685402 122.03330651 55.29296875 128.6328125 C52.27804733 133.82068494 47.27762299 135.27297028 41.875 137.25 C40.81063721 137.66580322 39.74627441 138.08160645 38.6496582 138.51000977 C36.41035968 139.38342979 34.16666102 140.24564317 31.91894531 141.09716797 C27.6945287 142.70544528 23.50311683 144.38980024 19.31079102 146.07958984 C16.21699994 147.32579268 13.11871428 148.56024319 10.01953125 149.79296875 C4.32159917 152.06531142 -1.36238443 154.3707471 -7.04199219 156.68847656 C-9.36592337 157.63674363 -11.69077669 158.58275433 -14.01660156 159.52636719 C-18.73732326 161.44316565 -23.45102724 163.36481639 -28.12109375 165.40234375 C-41.97008256 171.38833517 -41.97008256 171.38833517 -48.4375 169.375 C-53.51067415 165.9410507 -55.75246448 162.52931049 -57.9375 156.8125 C-58.25444824 156.02528564 -58.57139648 155.23807129 -58.89794922 154.42700195 C-60.09980898 151.41793599 -61.26908271 148.39721421 -62.4375 145.375 C-62.98041002 143.97966814 -63.52372997 142.58449573 -64.06738281 141.18945312 C-69.09597177 128.28157088 -69.09597177 128.28157088 -71.33789062 122.44506836 C-74.39367073 114.5056772 -77.57478713 106.65276559 -80.96386719 98.84790039 C-83.63803917 92.54569753 -86.05750148 86.14473347 -88.5 79.75 C-89.5095954 77.11115992 -90.52152306 74.47322906 -91.53515625 71.8359375 C-91.77811935 71.20130081 -92.02108246 70.56666412 -92.27140808 69.91279602 C-94.21105208 64.87779448 -96.31243547 59.92334821 -98.49755859 54.99047852 C-100.01759376 50.76083262 -100.28931489 46.78009984 -99.4375 42.375 C-95.73507214 35.27867994 -86.38581201 32.83461928 -79.2734375 30.1328125 C-78.51890289 29.8419577 -77.76436829 29.55110291 -76.98696899 29.25143433 C-74.59690631 28.33052414 -72.20491174 27.41478844 -69.8125 26.5 C-60.07151039 22.76885487 -50.39101215 18.98017317 -40.82324219 14.82177734 C-34.89400632 12.28812781 -28.88325757 9.96352397 -22.875 7.625 C-21.63207786 7.13953689 -20.3892391 6.65386027 -19.14648438 6.16796875 C-16.88250835 5.28308318 -14.61815473 4.39916251 -12.35327148 3.51660156 C-10.46102001 2.77573512 -8.57453961 2.01988934 -6.6953125 1.24658203 C-4.33287511 0.33461172 -2.52325719 0.04497785 0 0 Z M-12.234375 16.859375 C-12.86804993 17.11624084 -13.50172485 17.37310669 -14.15460205 17.63775635 C-16.16969566 18.4571332 -18.17855454 19.29067857 -20.1875 20.125 C-21.52043955 20.67023451 -22.85377026 21.21451377 -24.1875 21.7578125 C-26.76626401 22.80960119 -29.3425719 23.86706949 -31.91699219 24.92944336 C-34.95785938 26.17805464 -38.00628479 27.40289055 -41.0625 28.61328125 C-44.32532071 29.91232974 -47.51837391 31.29614662 -50.6875 32.8125 C-55.9899887 35.25807659 -61.41224361 37.18976456 -66.921875 39.11328125 C-76.53870596 42.50587895 -76.53870596 42.50587895 -85.4375 47.375 C-84.90503842 53.07360663 -83.78717118 57.8777609 -81.6875 63.1875 C-81.28543335 64.23333252 -81.28543335 64.23333252 -80.87524414 65.30029297 C-78.98408115 70.15784339 -76.869437 74.88404139 -74.65234375 79.6015625 C-72.74079843 83.96554057 -71.25187716 88.47116567 -69.6875 92.96875 C-68.56634839 96.02388815 -67.32225827 98.93238868 -65.9375 101.875 C-64.00939627 105.97222042 -62.42523255 110.09776891 -60.9375 114.375 C-59.11882608 119.59800416 -57.05070923 124.57455587 -54.6953125 129.57421875 C-52.80582934 133.78154617 -51.23348582 138.10005887 -49.6484375 142.4296875 C-48.47582236 145.28179013 -47.09431704 147.7796392 -45.4375 150.375 C-39.90394056 149.7514059 -35.21750924 147.84652151 -30.12109375 145.734375 C-29.2281813 145.37031555 -28.33526886 145.0062561 -27.41529846 144.63116455 C-24.56612227 143.46823549 -21.72047083 142.29696246 -18.875 141.125 C-15.14542351 139.59677391 -11.41452994 138.07177798 -7.68359375 136.546875 C-6.33803154 135.99580078 -6.33803154 135.99580078 -4.96528625 135.43359375 C0.95561193 133.01368259 6.89643821 130.66548394 12.88037109 128.40527344 C16.80798571 126.89657749 20.68506585 125.27603857 24.5546875 123.625 C26.66695106 122.74717618 28.79970205 121.91783527 30.9453125 121.125 C32.03585938 120.7125 33.12640625 120.3 34.25 119.875 C35.24386719 119.5140625 36.23773438 119.153125 37.26171875 118.78125 C39.75450685 117.57000704 39.75450685 117.57000704 40.5234375 115.01953125 C40.56947635 111.90270109 39.92288819 110.32560092 38.5 107.5625 C36.25628988 102.94455923 34.33306556 98.3122917 32.5625 93.5 C32.30984375 92.81671631 32.0571875 92.13343262 31.796875 91.42944336 C31.29238108 90.06359075 30.7886275 88.69746444 30.28564453 87.33105469 C27.30866596 79.2785387 24.14373117 71.31792403 20.8125 63.40625 C19.0640212 59.16618891 17.4451462 54.87944627 15.8125 50.59375 C14.22387869 46.50305012 12.52232259 42.46473631 10.81640625 38.421875 C9.48141312 35.17796646 8.23663659 31.90757053 7 28.625 C5.1250457 23.69434486 3.02971273 19.03529071 0.5625 14.375 C-4.33157526 14.07990786 -7.71759753 15.00380012 -12.234375 16.859375 Z " fill="#2A3642" transform="translate(191.4375,-0.375)"/>
<path d="M0 0 C0.82757813 0.31138916 1.65515625 0.62277832 2.5078125 0.94360352 C8.23738321 3.1161773 13.89452499 5.42606146 19.5 7.90234375 C21.81716775 8.92627369 21.81716775 8.92627369 24.75 8.75 C25.224375 7.615625 25.69875 6.48125 26.1875 5.3125 C27.75 1.75 27.75 1.75 28.75 0.75 C31.6875 0.5 31.6875 0.5 34.75 0.75 C36.75 3.75 36.75 3.75 36.40234375 6.125 C35.925601 7.87566189 35.44643158 9.62566474 34.96484375 11.375 C34.89394531 12.15875 34.82304687 12.9425 34.75 13.75 C35.23210937 14.19923828 35.71421875 14.64847656 36.2109375 15.11132812 C38.22855386 17.25952625 38.16974381 18.43145688 38.16015625 21.34375 C37.98491261 26.87143513 36.406316 31.23900578 34.1875 36.25 C33.44568138 38.011326 32.7048143 39.77305304 31.96484375 41.53515625 C31.59085449 42.41059082 31.21686523 43.28602539 30.83154297 44.18798828 C29.22597246 47.99134198 27.73401435 51.83545112 26.25 55.6875 C25.97043457 56.40518555 25.69086914 57.12287109 25.40283203 57.86230469 C23.7919173 62.00622504 22.22053419 66.16298208 20.67578125 70.33203125 C20.32386719 71.27506104 19.97195313 72.21809082 19.609375 73.18969727 C18.92958935 75.01456029 18.25604062 76.84176329 17.58984375 78.67163086 C13.15518137 90.54740931 13.15518137 90.54740931 8.75 92.75 C3.76377327 93.05425837 0.15219977 92.45758237 -4.4609375 90.58984375 C-5.6159375 90.12908447 -6.7709375 89.6683252 -7.9609375 89.19360352 C-9.17007813 88.69658936 -10.37921875 88.1995752 -11.625 87.6875 C-12.8798505 87.18002249 -14.13506148 86.67343544 -15.390625 86.16772461 C-17.87220718 85.16608512 -20.35023498 84.15680758 -22.82714844 83.14355469 C-25.78514971 81.93925574 -28.75107634 80.76176533 -31.7265625 79.6015625 C-33.23454335 79.00563416 -34.74237153 78.40931927 -36.25 77.8125 C-36.91821777 77.55525146 -37.58643555 77.29800293 -38.27490234 77.03295898 C-42.03415834 75.5134814 -44.90792496 74.11673287 -47.25 70.75 C-47.9760953 65.2382766 -46.48747125 60.94150992 -44.375 55.9375 C-43.72794765 54.34294204 -43.08219318 52.74785701 -42.4375 51.15234375 C-42.08558594 50.2897998 -41.73367188 49.42725586 -41.37109375 48.53857422 C-39.7405462 44.48280023 -38.19109709 40.39722059 -36.63671875 36.31176758 C-34.9495485 31.88327214 -33.24057476 27.46339152 -31.52734375 23.04492188 C-30.67821637 20.8545887 -29.83184488 18.66318508 -28.98828125 16.47070312 C-27.79849836 13.39115467 -26.58975588 10.31976916 -25.375 7.25 C-25.01809082 6.31833008 -24.66118164 5.38666016 -24.29345703 4.42675781 C-23.95169434 3.57436523 -23.60993164 2.72197266 -23.2578125 1.84375 C-22.96535645 1.09802734 -22.67290039 0.35230469 -22.37158203 -0.41601562 C-17.69939379 -8.05586718 -6.40047165 -2.47119187 0 0 Z " fill="#2B3642" transform="translate(438.25,49.25)"/>
<path d="M0 0 C1.21550537 -0.0213501 2.43101074 -0.0427002 3.68334961 -0.06469727 C4.81522705 -0.06912842 5.94710449 -0.07355957 7.11328125 -0.078125 C8.62015503 -0.09214355 8.62015503 -0.09214355 10.1574707 -0.10644531 C13.09127926 0.30688678 13.92639866 0.92264066 15.6875 3.25 C16.81502852 5.50505704 16.8743885 6.89946702 16.98461914 9.40722656 C17.02455994 10.27222275 17.06450073 11.13721893 17.10565186 12.02842712 C17.16356903 13.44521507 17.16356903 13.44521507 17.22265625 14.890625 C17.28746185 16.36451439 17.28746185 16.36451439 17.35357666 17.86817932 C17.49197752 21.0785591 17.62207215 24.28918662 17.75 27.5 C17.79385834 28.58413177 17.83771667 29.66826355 17.88290405 30.7852478 C18.41912652 44.20773357 18.90394824 57.62885443 19 71.0625 C19.01748291 72.2803418 19.03496582 73.49818359 19.05297852 74.75292969 C19.05225342 75.8515332 19.05152832 76.95013672 19.05078125 78.08203125 C19.05376221 79.01764893 19.05674316 79.9532666 19.05981445 80.91723633 C18.6875 83.25 18.6875 83.25 17.41796875 85.02954102 C15.37251205 86.47215361 14.12093543 86.73090011 11.63671875 86.9453125 C10.80712646 87.02112549 9.97753418 87.09693848 9.12280273 87.17504883 C8.21602783 87.24103271 7.30925293 87.3070166 6.375 87.375 C5.42890869 87.45065186 4.48281738 87.52630371 3.50805664 87.60424805 C-4.44059921 88.19691934 -12.40150649 88.6344064 -20.36483765 88.97479248 C-22.35014238 89.06141541 -24.33487901 89.16075475 -26.31958008 89.26025391 C-27.54572021 89.30456543 -28.77186035 89.34887695 -30.03515625 89.39453125 C-31.67109741 89.46184448 -31.67109741 89.46184448 -33.34008789 89.53051758 C-36.76339203 89.20744764 -38.57276546 88.29008358 -41.3125 86.25 C-44.59481663 79.68536675 -43.57211939 69.93147876 -43.84765625 62.71484375 C-43.89063339 61.63731339 -43.93361053 60.55978302 -43.97789001 59.44960022 C-44.06757129 57.17975647 -44.15572788 54.90985201 -44.24243164 52.63989258 C-44.37370163 49.2213127 -44.51170826 45.80305186 -44.65039062 42.38476562 C-44.90383366 36.00740601 -45.12069646 29.62949462 -45.3125 23.25 C-45.34156433 22.35162415 -45.37062866 21.45324829 -45.40057373 20.52764893 C-45.47122036 18.14468152 -45.51986673 15.76257788 -45.55859375 13.37890625 C-45.58493896 12.08154541 -45.61128418 10.78418457 -45.63842773 9.44750977 C-45.28693143 5.99915987 -44.78195422 4.63796836 -42.3125 2.25 C-39.54694055 1.32814685 -37.62729144 1.0633853 -34.75390625 0.93359375 C-33.82344482 0.89137695 -32.8929834 0.84916016 -31.93432617 0.80566406 C-21.29118462 0.39458111 -10.65098891 0.1001877 0 0 Z " fill="#35404B" transform="translate(324.3125,31.75)"/>
<path d="M0 0 C2.54225719 1.15908036 3.4143447 2.47893807 4.95767212 4.8009491 C5.51860565 5.63271667 6.07953918 6.46448425 6.6574707 7.32145691 C7.25234283 8.22863464 7.84721497 9.13581238 8.46011353 10.07048035 C9.39580673 11.46798523 9.39580673 11.46798523 10.35040283 12.89372253 C12.34831705 15.88308737 14.33011506 18.88275667 16.31167603 21.88298035 C17.63875192 23.87456522 18.96686528 25.86545922 20.29605103 27.8556366 C23.31028535 32.37343651 26.32242449 36.89245057 29.29818726 41.43571472 C30.40890544 43.09469614 31.55367175 44.73128903 32.72799683 46.34587097 C33.28751038 47.12639832 33.84702393 47.90692566 34.42349243 48.71110535 C34.93070831 49.3959198 35.43792419 50.08073425 35.96051025 50.78630066 C37.2539972 53.5645458 36.90108372 55.01735035 35.93667603 57.88298035 C33.71865845 59.88420105 33.71865845 59.88420105 30.79214478 61.8087616 C29.72157837 62.52354675 28.65101196 63.23833191 27.54800415 63.97477722 C26.4069836 64.71540536 25.26570659 65.45563854 24.12417603 66.19548035 C23.03685181 66.91671082 21.94952759 67.63794128 20.82925415 68.38102722 C18.63762342 69.83299886 16.44081722 71.27718857 14.23892212 72.71354675 C12.00270189 74.18264722 9.78304795 75.66253969 7.57583618 77.17350769 C6.51542114 77.89618835 5.4550061 78.61886902 4.36245728 79.3634491 C3.41411011 80.01595642 2.46576294 80.66846375 1.48867798 81.34074402 C-0.82823272 82.74090903 -2.46881973 83.31402163 -5.06332397 83.88298035 C-9.06728294 77.96194449 -13.06888861 72.03932326 -17.06893921 66.11564636 C-18.4271345 64.1048725 -19.78584828 62.09444875 -21.14511108 60.08439636 C-23.11013366 57.17835672 -25.07322548 54.27102078 -27.03598022 51.3634491 C-27.63419083 50.47965073 -28.23240143 49.59585236 -28.84873962 48.68527222 C-30.59798537 46.09170438 -32.33244927 43.48883784 -34.06332397 40.88298035 C-34.72146088 39.90656586 -35.37959778 38.93015137 -36.05767822 37.92414856 C-36.69948029 36.95190338 -37.34128235 35.9796582 -38.00253296 34.97795105 C-38.58880966 34.09798965 -39.17508636 33.21802826 -39.77912903 32.31140137 C-41.06332397 29.88298035 -41.06332397 29.88298035 -41.06332397 25.88298035 C-39.60964966 24.40817261 -39.60964966 24.40817261 -37.54672241 23.02629089 C-36.77882385 22.50282578 -36.01092529 21.97936066 -35.21975708 21.44003296 C-34.37922791 20.88882278 -33.53869873 20.33761261 -32.67269897 19.7696991 C-31.81653992 19.19589005 -30.96038086 18.62208099 -30.07827759 18.03088379 C-28.26350814 16.81977486 -26.44408091 15.61562105 -24.62045288 14.41789246 C-21.82606669 12.57886651 -19.05162514 10.71236155 -16.27816772 8.84196472 C-14.51497302 7.67034321 -12.75068493 6.50036513 -10.98519897 5.3321991 C-10.15276672 4.77086777 -9.32033447 4.20953644 -8.462677 3.63119507 C-7.6821698 3.12349075 -6.9016626 2.61578644 -6.09750366 2.09269714 C-5.4135553 1.64065414 -4.72960693 1.18861115 -4.02493286 0.72286987 C-2.06332397 -0.11701965 -2.06332397 -0.11701965 0 0 Z " fill="#FCFAF9" transform="translate(56.063323974609375,125.11701965332031)"/>
<path d="M0 0 C1.98 0 3.96 0 6 0 C7.32 2.31 8.64 4.62 10 7 C11.32 7 12.64 7 14 7 C16.28239171 4.07678035 16.28239171 4.07678035 18 1 C20.475 1.495 20.475 1.495 23 2 C23.495 6.95 23.495 6.95 24 12 C28.90754997 12.46225016 28.90754997 12.46225016 32 10 C34.1875 10.375 34.1875 10.375 36 11 C36.6875 13.3125 36.6875 13.3125 37 16 C36.02149805 17.02104551 35.02019573 18.0206121 34 19 C33.74930087 21.62570704 33.74930087 21.62570704 34 24 C34.95712891 24.09087891 34.95712891 24.09087891 35.93359375 24.18359375 C36.75988281 24.26738281 37.58617187 24.35117187 38.4375 24.4375 C39.26121094 24.51871094 40.08492188 24.59992188 40.93359375 24.68359375 C43 25 43 25 44 26 C44.04063832 27.66617115 44.042721 29.33388095 44 31 C40.04 32.98 40.04 32.98 36 35 C36 36.32 36 37.64 36 39 C38.31 40.32 40.62 41.64 43 43 C42.125 47.875 42.125 47.875 41 49 C39.30858344 48.91036938 37.62040398 48.75422324 35.9375 48.5625 C35.01839844 48.46066406 34.09929687 48.35882813 33.15234375 48.25390625 C32.44207031 48.17011719 31.73179687 48.08632813 31 48 C31.48477081 51.46264864 31.97675062 54.88798024 32.6875 58.3125 C32.8421875 59.6428125 32.8421875 59.6428125 33 61 C32.34 61.66 31.68 62.32 31 63 C28.40370888 62.74874602 27.30542178 62.3452594 25.5625 60.375 C25.046875 59.92125 24.53125 59.4675 24 59 C21.34533951 59.23043864 21.34533951 59.23043864 19 60 C18.855625 61.299375 18.71125 62.59875 18.5625 63.9375 C18.125 67.875 18.125 67.875 17 69 C15.33382885 69.04063832 13.66611905 69.042721 12 69 C11.01 66.69 10.02 64.38 9 62 C6.6704053 61.49758678 6.6704053 61.49758678 4 62 C1.64677204 64.90412546 1.64677204 64.90412546 0 68 C-1.65 67.67 -3.3 67.34 -5 67 C-5.495 62.05 -5.495 62.05 -6 57 C-7.485 56.505 -7.485 56.505 -9 56 C-9.804375 56.495 -10.60875 56.99 -11.4375 57.5 C-14 59 -14 59 -16.3125 58.6875 C-16.869375 58.460625 -17.42625 58.23375 -18 58 C-18.75 55.75 -18.75 55.75 -19 53 C-17.68799596 51.64567325 -16.35368596 50.31266518 -15 49 C-14.66501699 46.33165034 -14.66501699 46.33165034 -15 44 C-15.62648438 44.02320313 -16.25296875 44.04640625 -16.8984375 44.0703125 C-17.71570313 44.08835937 -18.53296875 44.10640625 -19.375 44.125 C-20.18710937 44.14820313 -20.99921875 44.17140625 -21.8359375 44.1953125 C-24 44 -24 44 -26 42 C-26.0625 39.5625 -26.0625 39.5625 -25 37 C-21.4375 35.1875 -21.4375 35.1875 -18 34 C-18.11341534 31.59122743 -18.11341534 31.59122743 -19 29 C-19.845625 28.505 -20.69125 28.01 -21.5625 27.5 C-22.366875 27.005 -23.17125 26.51 -24 26 C-24.375 23.375 -24.375 23.375 -24 21 C-23 20 -23 20 -20.93359375 19.90234375 C-19.69802734 19.91974609 -19.69802734 19.91974609 -18.4375 19.9375 C-17.61121094 19.94652344 -16.78492188 19.95554687 -15.93359375 19.96484375 C-14.97646484 19.98224609 -14.97646484 19.98224609 -14 20 C-13.3121764 17.64632287 -13.3121764 17.64632287 -13 15 C-13.66 14.01 -14.32 13.02 -15 12 C-14.625 9.3125 -14.625 9.3125 -14 7 C-12.3125 6.25 -12.3125 6.25 -10 6 C-8.33333333 7.33333333 -6.66666667 8.66666667 -5 10 C-3.68 9.67 -2.36 9.34 -1 9 C-0.67 6.03 -0.34 3.06 0 0 Z " fill="#585851" transform="translate(277,347)"/>
<path d="M0 0 C1.89751635 2.8576369 2.00080031 3.95518279 1.9375 7.5 C1 11 1 11 -1.25 13.4375 C-4.36857762 15.2094191 -5.48281964 15.38688984 -9 15 C-12.09375 13.609375 -12.09375 13.609375 -15.5 11.75 C-35.43749468 1.34634805 -57.66961797 -0.60374072 -79.203125 5.7109375 C-95.36139363 11.02682254 -111.26327959 19.57163222 -121.6875 33.4375 C-124 36 -124 36 -127 37.0625 C-130.71657733 36.98507131 -132.21602826 36.47464155 -135 34 C-136.79357603 30.03918627 -137.34942687 28.02772607 -135.9375 23.875 C-133.85709525 20.78794779 -131.72306306 18.54547199 -129 16 C-128.39542969 15.34128906 -127.79085937 14.68257812 -127.16796875 14.00390625 C-113.65403983 -0.46276719 -95.0691372 -8.7868189 -76 -13 C-75.24468994 -13.17660156 -74.48937988 -13.35320312 -73.71118164 -13.53515625 C-49.88552109 -18.79582452 -20.13107432 -14.3374318 0 0 Z " fill="#EE722B" transform="translate(329,196)"/>
<path d="M0 0 C1.88578805 2.93542479 2.00327395 3.93779491 1.8125 7.5625 C0.9913335 11.03666595 0.6969645 11.90097682 -2 14 C-9.17948175 14.92638474 -14.30118765 13.01377672 -20.88671875 10.19140625 C-32.86885718 5.60602078 -47.0238942 7.48425124 -58.72265625 12.06640625 C-65.91249686 15.43351862 -72.27039294 20.01043036 -77.625 25.875 C-80.8119924 28.72651951 -82.74374499 29.14934228 -87 29 C-90.4375 27 -90.4375 27 -93 24 C-93.41576711 20.4956772 -93.58939347 18.17878694 -92 15 C-91.34 15 -90.68 15 -90 15 C-89.74347656 14.41605469 -89.48695313 13.83210938 -89.22265625 13.23046875 C-83.57873458 2.93436884 -69.24509164 -3.45509939 -58.5859375 -7.19921875 C-55.72715173 -7.95639069 -52.92013875 -8.53959856 -50 -9 C-48.81470703 -9.20882812 -48.81470703 -9.20882812 -47.60546875 -9.421875 C-32.8803411 -11.47313656 -11.8925189 -9.7637864 0 0 Z " fill="#ED732B" transform="translate(311,222)"/>
<path d="M0 0 C2.4375 0.25 2.4375 0.25 5 1 C5.66 1.99 6.32 2.98 7 4 C10.56769552 4.73606499 10.56769552 4.73606499 14 5 C14.2475 4.360625 14.495 3.72125 14.75 3.0625 C16 1 16 1 18 0.1875 C20 0 20 0 22 1 C22.34375 2.99609375 22.34375 2.99609375 22.5 5.4375 C22.65121611 9.16559619 22.65121611 9.16559619 25 12 C27.65537372 12.56520003 30.29144713 12.73788198 33 13 C33.495 15.475 33.495 15.475 34 18 C33.360625 18.350625 32.72125 18.70125 32.0625 19.0625 C29.17836168 21.77184206 29.2899178 24.15858911 29 28 C29.639375 28.2475 30.27875 28.495 30.9375 28.75 C33 30 33 30 33.8125 32 C34 34 34 34 33 36 C30.96875 36.37890625 30.96875 36.37890625 28.5 36.5625 C25.45018475 36.5792263 25.45018475 36.5792263 23 38 C22.80683287 40.02825491 22.61674212 42.05723921 22.4765625 44.08984375 C22 46 22 46 19 48 C16.9375 47.8125 16.9375 47.8125 15 47 C14.34 46.01 13.68 45.02 13 44 C9.43230448 43.26393501 9.43230448 43.26393501 6 43 C5.7525 43.639375 5.505 44.27875 5.25 44.9375 C4 47 4 47 2 47.8125 C0 48 0 48 -2 47 C-2.37890625 44.96875 -2.37890625 44.96875 -2.5625 42.5 C-2.5792263 39.45018475 -2.5792263 39.45018475 -4 37 C-6.02825491 36.80683287 -8.05723921 36.61674212 -10.08984375 36.4765625 C-12 36 -12 36 -14 33 C-13.8125 30.9375 -13.8125 30.9375 -13 29 C-12.01 28.34 -11.02 27.68 -10 27 C-9.4161804 24.0850745 -9.4161804 24.0850745 -10 21 C-10.680625 20.319375 -11.36125 19.63875 -12.0625 18.9375 C-12.701875 18.298125 -13.34125 17.65875 -14 17 C-13.75 14.25 -13.75 14.25 -13 12 C-12.37351562 11.95101563 -11.74703125 11.90203125 -11.1015625 11.8515625 C-10.28429687 11.77679688 -9.46703125 11.70203125 -8.625 11.625 C-7.81289063 11.55539062 -7.00078125 11.48578125 -6.1640625 11.4140625 C-3.79665809 11.17107412 -3.79665809 11.17107412 -2 9 C-1.57862715 7.06008596 -1.57862715 7.06008596 -1.4375 4.9375 C-1 1 -1 1 0 0 Z " fill="#595952" transform="translate(320,317)"/>
<path d="M0 0 C4.85681026 0.97320699 9.37539471 1.91066664 13.8125 4.1875 C20.06209102 7.17875724 26.54291155 9.36688209 33.0949707 11.58862305 C33.92859131 11.87261963 34.76221191 12.15661621 35.62109375 12.44921875 C36.3680249 12.70018311 37.11495605 12.95114746 37.88452148 13.2097168 C40.01127496 14.00421201 41.98963763 14.94833398 44 16 C43.52595921 20.62189766 42.12831489 24.20757506 40.16796875 28.34765625 C38.30377499 32.58105947 36.89898533 36.98702673 35.44140625 41.375 C34 44 34 44 31.625 45 C28.59131594 45 27.11211432 44.41001084 24.4375 43 C18.22055988 39.9592895 11.81306369 37.76783556 5.25756836 35.58789062 C-0.09006041 33.77858595 -5.00376845 31.63353843 -10 29 C-9.48397915 22.3104934 -7.04376051 16.69699068 -4.4375 10.5625 C-4.01275391 9.54478516 -3.58800781 8.52707031 -3.15039062 7.47851562 C-2.10747277 4.98254369 -1.05720058 2.48994786 0 0 Z " fill="#F9F7F6" transform="translate(422,58)"/>
<path d="M0 0 C1.17042091 0.00022659 1.17042091 0.00022659 2.36448669 0.00045776 C3.18143509 0.01078033 3.99838348 0.02110291 4.84008789 0.03173828 C5.69582901 0.03456818 6.55157013 0.03739807 7.4332428 0.04031372 C10.14322405 0.05143143 12.85286423 0.07651996 15.56274414 0.10205078 C17.40974455 0.11209147 19.25675018 0.12121541 21.10375977 0.12939453 C25.61105091 0.15134315 30.11808987 0.18581424 34.62524414 0.22705078 C34.8210576 4.70589517 35.00550774 9.18513504 35.18774414 13.66455078 C35.27185547 15.58364258 35.27185547 15.58364258 35.35766602 17.54150391 C35.40600586 18.75644531 35.4543457 19.97138672 35.50415039 21.22314453 C35.55128174 22.34906006 35.59841309 23.47497559 35.64697266 24.63500977 C35.62524414 27.22705078 35.62524414 27.22705078 34.62524414 28.22705078 C33.21406712 28.34915002 31.79703955 28.40475951 30.38085938 28.43237305 C29.02957191 28.46229088 29.02957191 28.46229088 27.65098572 28.49281311 C26.67182693 28.5095256 25.69266815 28.5262381 24.68383789 28.54345703 C23.18772728 28.57462868 23.18772728 28.57462868 21.66139221 28.60643005 C18.46191572 28.67203715 15.26235432 28.73086212 12.06274414 28.78955078 C9.89932375 28.8327254 7.73591208 28.87633933 5.57250977 28.92041016 C0.25684045 29.02856005 -5.05888933 29.12755029 -10.37475586 29.22705078 C-10.70475586 20.31705078 -11.03475586 11.40705078 -11.37475586 2.22705078 C-3.49975586 -0.02294922 -3.49975586 -0.02294922 0 0 Z " fill="#FBF8F7" transform="translate(298.374755859375,43.77294921875)"/>
<path d="M0 0 C0.8345874 0.00612305 1.6691748 0.01224609 2.52905273 0.01855469 C8.28792778 0.16510529 13.98018624 0.56107791 18.5625 4.4375 C20.43759505 7.36957538 20.56532358 8.3838519 20.375 12 C19.2472906 16.77107825 19.2472906 16.77107825 16.5625 18.4375 C12.21717605 19.44502177 9.0200331 19.33459288 4.6875 18.375 C-3.38140352 16.93412437 -7.64146481 18.19415031 -14.4375 22.625 C-17.72866674 24.69402316 -19.94766426 25.91324483 -23.875 25.625 C-27.4375 24.4375 -27.4375 24.4375 -29.4375 22.25 C-30.61430897 18.94022477 -31.01783168 16.91949011 -30.4375 13.4375 C-23.08717979 4.01990223 -11.58447088 -0.14412304 0 0 Z " fill="#ED722B" transform="translate(274.4375,243.5625)"/>
<path d="M0 0 C1.32 0 2.64 0 4 0 C4 1.32 4 2.64 4 4 C4.7425 4 5.485 4 6.25 4 C8.5 4 10.75 4 13 4 C12.67 6.64 12.34 9.28 12 12 C13.32 12 14.64 12 16 12 C16 13.32 16 14.64 16 16 C14.68 16 13.36 16 12 16 C12.33 18.64 12.66 21.28 13 24 C10 24 7 24 4 24 C4 25.32 4 26.64 4 28 C2.68 28 1.36 28 0 28 C0 26.68 0 25.36 0 24 C-3.96 24.495 -3.96 24.495 -8 25 C-8 22.03 -8 19.06 -8 16 C-9.32 16 -10.64 16 -12 16 C-12 14.68 -12 13.36 -12 12 C-10.68 11.34 -9.36 10.68 -8 10 C-8.33 8.02 -8.66 6.04 -9 4 C-5.25 2.875 -5.25 2.875 -3 4 C-2.34 3.67 -1.68 3.34 -1 3 C-0.67 2.01 -0.34 1.02 0 0 Z " fill="#EF7B3C" transform="translate(167,70)"/>
<path d="M0 0 C2.41883751 1.27571959 4.7898646 2.57214932 7.06640625 4.08984375 C7.49953125 3.59484375 7.93265625 3.09984375 8.37890625 2.58984375 C10.06640625 1.08984375 10.06640625 1.08984375 13.06640625 1.08984375 C13.06640625 6.03984375 13.06640625 10.98984375 13.06640625 16.08984375 C8.11640625 16.08984375 3.16640625 16.08984375 -1.93359375 16.08984375 C-0.97425294 12.25248053 -0.69750112 11.49324147 2.06640625 9.08984375 C1.29713502 5.78895185 1.29713502 5.78895185 -2.05859375 3.90234375 C-8.94924411 0.6991225 -17.49711196 0.72622258 -24.69140625 2.9375 C-31.22861818 6.20610597 -35.30300948 11.44044087 -38.24609375 18.02734375 C-39.1434836 22.02480762 -39.58916459 26.01107737 -39.93359375 30.08984375 C-41.25359375 30.08984375 -42.57359375 30.08984375 -43.93359375 30.08984375 C-44.52216006 20.9670659 -42.54962089 13.91859418 -36.68359375 6.77734375 C-26.75972792 -3.78815133 -13.25024806 -6.13396986 0 0 Z " fill="#EF7E41" transform="translate(183.93359375,57.91015625)"/>
<path d="M0 0 C0.99 0 1.98 0 3 0 C3.95825803 9.01472371 1.99579258 15.45104794 -3 23 C-5.10185524 25.49720421 -7.23810096 27.27309833 -10 29 C-10.63292969 29.40992187 -11.26585937 29.81984375 -11.91796875 30.2421875 C-18.81238191 33.99336915 -26.35449427 33.96788849 -34 33 C-37.64549105 31.73342554 -40.74380855 30.04674891 -44 28 C-45.32641402 27.31967061 -46.65770055 26.64842456 -48 26 C-48.433125 26.495 -48.86625 26.99 -49.3125 27.5 C-51 29 -51 29 -54 29 C-54 24.05 -54 19.1 -54 14 C-49.05 14 -44.1 14 -39 14 C-39.99476062 17.9790425 -40.30632425 18.42344058 -43 21 C-43 21.66 -43 22.32 -43 23 C-35.68937532 28.41527754 -28.92385263 29.08575264 -20 28 C-12.77368645 26.28654421 -8.08945539 22.08973248 -4 16 C-1.29786533 10.87389158 -0.5108536 5.72156028 0 0 Z " fill="#F08144" transform="translate(196,81)"/>
<path d="M0 0 C0.83265381 0.00523682 1.66530762 0.01047363 2.52319336 0.01586914 C3.42231445 0.0190918 4.32143555 0.02231445 5.24780273 0.02563477 C6.66609375 0.03820313 6.66609375 0.03820313 8.11303711 0.05102539 C9.06243164 0.05553711 10.01182617 0.06004883 10.98999023 0.06469727 C13.34356776 0.07652429 15.69702188 0.09300514 18.05053711 0.11352539 C17.28741211 0.69102539 16.52428711 1.26852539 15.73803711 1.86352539 C12.41537324 4.6128979 12.41537324 4.6128979 10.05053711 8.11352539 C9.83727026 10.78646989 9.7650808 13.20614659 9.86303711 15.86352539 C9.87657227 16.5609082 9.89010742 17.25829102 9.90405273 17.97680664 C9.93924261 19.6893808 9.99304556 21.4015548 10.05053711 23.11352539 C10.64866211 22.90727539 11.24678711 22.70102539 11.86303711 22.48852539 C14.05053711 22.11352539 14.05053711 22.11352539 17.05053711 24.11352539 C19.32966649 24.56747091 19.32966649 24.56747091 21.73803711 24.73852539 C22.5462793 24.81329102 23.35452148 24.88805664 24.18725586 24.96508789 C24.80213867 25.01407227 25.41702148 25.06305664 26.05053711 25.11352539 C25.72053711 25.77352539 25.39053711 26.43352539 25.05053711 27.11352539 C22.34741211 27.52758789 22.34741211 27.52758789 18.80053711 27.73852539 C17.66100586 27.81329102 16.52147461 27.88805664 15.34741211 27.96508789 C9.58623573 28.22483698 3.81597791 28.14308614 -1.94946289 28.11352539 C-2.14527635 23.634681 -2.32972649 19.15544113 -2.51196289 14.67602539 C-2.56803711 13.39663086 -2.62411133 12.11723633 -2.68188477 10.79907227 C-2.73022461 9.58413086 -2.77856445 8.36918945 -2.82836914 7.11743164 C-2.87550049 5.99151611 -2.92263184 4.86560059 -2.97119141 3.70556641 C-2.94156442 0.17129962 -2.94156442 0.17129962 0 0 Z " fill="#FDFCFC" transform="translate(289.949462890625,44.886474609375)"/>
<path d="M0 0 C2.87557703 -0.08138426 5.74882262 -0.14067851 8.625 -0.1875 C9.43324219 -0.21263672 10.24148438 -0.23777344 11.07421875 -0.26367188 C16.23338666 -0.32658856 19.43487222 0.3599261 24 3 C26.75146274 3.25284367 26.75146274 3.25284367 29 3 C29 4.98 29 6.96 29 9 C27.865625 9.28875 26.73125 9.5775 25.5625 9.875 C24.386875 10.24625 23.21125 10.6175 22 11 C21.67 11.66 21.34 12.32 21 13 C21.66 13.33 22.32 13.66 23 14 C22.34 14 21.68 14 21 14 C21 15.32 21 16.64 21 18 C17.71303767 18.79953138 16.28976808 19.09658936 13 18 C13 18.66 13 19.32 13 20 C12.34 20.33 11.68 20.66 11 21 C12.98392511 23.39851321 12.98392511 23.39851321 16.8125 23.4375 C20.23720478 23.34426847 20.95987389 23.02965843 23.875 20.875 C26.04480835 17.93937694 27.09979814 15.5189709 28 12 C28.33 12 28.66 12 29 12 C29.31974464 16.07674421 29.43803342 18.32029296 27.1875 21.8125 C23.14592275 25.85407725 23.14592275 25.85407725 19.9140625 26.265625 C15.46072215 26.23522677 12.0816106 25.97896271 8 24 C7.34 24 6.68 24 6 24 C4.28777434 10.67515476 4.28777434 10.67515476 5.9765625 6.703125 C7.72906305 4.63291967 9.57702961 3.2114852 12 2 C8.04 1.67 4.08 1.34 0 1 C0 0.67 0 0.34 0 0 Z " fill="#FEF3EE" transform="translate(294,44)"/>
<path d="M0 0 C4.51315789 2.02631579 4.51315789 2.02631579 6 5 C8.02463255 5.65213292 8.02463255 5.65213292 10 6 C9.34 7.98 8.68 9.96 8 12 C5.69 11.67 3.38 11.34 1 11 C1 11.99 1 12.98 1 14 C0.01 14 -0.98 14 -2 14 C-2 14.99 -2 15.98 -2 17 C-3.98 17 -5.96 17 -8 17 C-8 16.01 -8 15.02 -8 14 C-9.65 14.66 -11.3 15.32 -13 16 C-12.24849977 19.27773504 -12.24849977 19.27773504 -9 21 C-2.63164397 21.53365342 -2.63164397 21.53365342 3 19 C4.26804566 16.9664052 4.26804566 16.9664052 5 15 C5.66 15 6.32 15 7 15 C5.64712489 19.42759127 4.04076435 21.67870984 0 24 C-3.8910819 24.77534473 -7.37903077 24.89649522 -10.9140625 22.94140625 C-12.5625 21.625 -12.5625 21.625 -15 19 C-15 18.34 -15 17.68 -15 17 C-16.32 17.33 -17.64 17.66 -19 18 C-18.52417268 16.33460438 -18.04640566 14.66973722 -17.55859375 13.0078125 C-17.03521705 11.12658436 -16.60767194 9.2194342 -16.1875 7.3125 C-13.36129311 -0.57112975 -7.50439499 -1.04741145 0 0 Z " fill="#FDF0EA" transform="translate(443,69)"/>
<path d="M0 0 C3.71317907 1.14770989 5.2692056 1.85342428 7.4375 5.0625 C8.07406938 8.80234509 7.69334708 10.57212644 5.9375 13.9375 C2.90834317 16.51228331 1.23099229 16.80795844 -2.65625 16.546875 C-4.5625 16.0625 -4.5625 16.0625 -7.0625 13.9375 C-8.84051176 10.52964413 -9.27210213 8.84704468 -8.5625 5.0625 C-5.88937913 1.25532785 -4.71546409 0.08272744 0 0 Z " fill="#F9F9F9" transform="translate(286.5625,372.9375)"/>
<path d="M0 0 C0.66 0 1.32 0 2 0 C2.33 0.66 2.66 1.32 3 2 C4.32 2 5.64 2 7 2 C7 3.65 7 5.3 7 7 C7.99 7.33 8.98 7.66 10 8 C10 8.66 10 9.32 10 10 C9.01 10 8.02 10 7 10 C7 11.65 7 13.3 7 15 C5.35 15 3.7 15 2 15 C2 15.99 2 16.98 2 18 C1.01 17.67 0.02 17.34 -1 17 C-1 16.34 -1 15.68 -1 15 C-2.65 15 -4.3 15 -6 15 C-5.67 13.35 -5.34 11.7 -5 10 C-5.99 10 -6.98 10 -8 10 C-8 9.01 -8 8.02 -8 7 C-7.01 7 -6.02 7 -5 7 C-5.33 5.35 -5.66 3.7 -6 2 C-4.35 2 -2.7 2 -1 2 C-0.67 1.34 -0.34 0.68 0 0 Z " fill="#F08146" transform="translate(52,157)"/>
<path d="M0 0 C0.66 0 1.32 0 2 0 C2.65540575 5.24324604 2.51138677 8.98079145 -0.625 13.375 C-4.24395675 17.58036178 -7.19970223 19.73330497 -12.87109375 20.2734375 C-18.75341715 20.46063506 -21.973013 20.13556213 -27 17 C-30.23556199 17.21849209 -30.23556199 17.21849209 -33 18 C-33 15.03 -33 12.06 -33 9 C-29.7 9 -26.4 9 -23 9 C-23.66 10.65 -24.32 12.3 -25 14 C-21.14119953 17.35199948 -18.44009095 17.51580455 -13.46875 17.34765625 C-8.41742711 16.63631489 -5.81978115 13.99703112 -2.6875 10.1875 C-0.84380849 6.7049716 -0.31243258 3.90540719 0 0 Z " fill="#EF7F43" transform="translate(69,164)"/>
<path d="M0 0 C2.4375 1.5625 2.4375 1.5625 4 4 C4 7.82389746 3.85254277 10.05611336 1.25 12.9375 C-1.52291498 14.24693207 -2.97519717 14.60496057 -6 14 C-8.56412763 11.57447386 -9.82087126 9.91803481 -10.5 6.4375 C-9.31541251 0.66263599 -5.51230837 -0.91871806 0 0 Z " fill="#F7F7F7" transform="translate(333,334)"/>
<path d="M0 0 C2.02237052 0.95394836 4.0282696 1.94535351 6 3 C9.27885532 2.78892707 9.27885532 2.78892707 12 2 C12 4.97 12 7.94 12 11 C9.03 11 6.06 11 3 11 C3.66 9.35 4.32 7.7 5 6 C0.11687875 3.60826714 -3.45269125 2.22143035 -9 3 C-13.35180022 4.88229436 -16.31520077 6.96175601 -18.9375 10.9375 C-19.9906082 13.97292951 -20.6205804 16.81287537 -21 20 C-21.66 20 -22.32 20 -23 20 C-23.31646072 14.72565464 -22.92921808 11.44107257 -20 7 C-13.5498547 0.60957827 -9.11601374 -0.78876147 0 0 Z " fill="#F08249" transform="translate(58,148)"/>
<path d="M0 0 C2.87557703 -0.08138426 5.74882262 -0.14067851 8.625 -0.1875 C9.43324219 -0.21263672 10.24148438 -0.23777344 11.07421875 -0.26367188 C16.23338666 -0.32658856 19.43487222 0.3599261 24 3 C26.75146274 3.25284367 26.75146274 3.25284367 29 3 C29 4.98 29 6.96 29 9 C26.69 9 24.38 9 22 9 C22.66 7.68 23.32 6.36 24 5 C17.94827777 3.69190205 17.94827777 3.69190205 12.03515625 4.8359375 C9.15714195 7.04546437 8.04659287 8.8236127 7.125 12.3125 C7.08375 13.199375 7.0425 14.08625 7 15 C6.34 15 5.68 15 5 15 C4.65248031 12.08083462 4.46719982 9.86804524 6.04296875 7.30078125 C7.84637235 5.11660035 9.44412384 3.27793808 12 2 C8.04 1.67 4.08 1.34 0 1 C0 0.67 0 0.34 0 0 Z " fill="#DA9675" transform="translate(294,44)"/>
<path d="M0 0 C0.886875 0.185625 1.77375 0.37125 2.6875 0.5625 C5.85178811 0.98042484 7.94839642 0.80777742 11 0 C10.814375 0.9075 10.62875 1.815 10.4375 2.75 C10.04265379 5.68314324 10.05308428 7.2644657 11 10 C8 11 8 11 5 10 C2.36195411 10.39397335 2.36195411 10.39397335 0 11 C0.185625 10.113125 0.37125 9.22625 0.5625 8.3125 C0.98042484 5.14821189 0.80777742 3.05160358 0 0 Z " fill="#969BA0" transform="translate(314,97)"/>
<path d="M0 0 C3.0625 0.3125 3.0625 0.3125 4.9375 1.5 C6.46909584 3.96757108 6.49072025 5.45769831 6.0625 8.3125 C4.875 10.125 4.875 10.125 3.0625 11.3125 C0.20769831 11.74072025 -1.28242892 11.71909584 -3.75 10.1875 C-5.46599028 7.47804166 -5.271228 5.44954316 -4.9375 2.3125 C-2.9375 0.3125 -2.9375 0.3125 0 0 Z " fill="#F4F4F5" transform="translate(310.9375,75.6875)"/>
<path d="M0 0 C2.4375 0.8125 2.4375 0.8125 4.4375 2.8125 C4.6875 5.8125 4.6875 5.8125 4.4375 8.8125 C2.4375 10.8125 2.4375 10.8125 -0.5625 11.0625 C-3.5625 10.8125 -3.5625 10.8125 -5.5625 8.8125 C-5.89911952 5.6482765 -6.06193411 3.62736618 -4.375 0.875 C-2.5625 -0.1875 -2.5625 -0.1875 0 0 Z " fill="#FEF8F6" transform="translate(169.5625,78.1875)"/>
<path d="M0 0 C0 1.32 0 2.64 0 4 C0.66 4.33 1.32 4.66 2 5 C1.34 5 0.68 5 0 5 C0 6.32 0 7.64 0 9 C-3.28696233 9.79953138 -4.71023192 10.09658936 -8 9 C-9.1875 5.9375 -9.1875 5.9375 -10 3 C-9.34 3 -8.68 3 -8 3 C-8 2.01 -8 1.02 -8 0 C-4.71023192 -1.09658936 -3.28696233 -0.79953138 0 0 Z " fill="#F5A983" transform="translate(315,53)"/>
<path d="M0 0 C2.4375 0.375 2.4375 0.375 5 1 C5.33 1.66 5.66 2.32 6 3 C5.34 3.66 4.68 4.32 4 5 C5.71163972 7.28218629 7.01766591 8.82688375 9.90625 9.3359375 C13.63280034 9.40546269 16.94863987 9.3472001 20 7 C21.26804566 4.9664052 21.26804566 4.9664052 22 3 C22.66 3 23.32 3 24 3 C22.64712489 7.42759127 21.04076435 9.67870984 17 12 C13.1089181 12.77534473 9.62096923 12.89649522 6.0859375 10.94140625 C4.4375 9.625 4.4375 9.625 2 7 C2 6.34 2 5.68 2 5 C0.68 5.33 -0.64 5.66 -2 6 C-1.34 4.02 -0.68 2.04 0 0 Z " fill="#F28F5F" transform="translate(426,81)"/>
<path d="M0 0 C0.33 0 0.66 0 1 0 C1.31974464 4.07674421 1.43803342 6.32029296 -0.8125 9.8125 C-4.85407725 13.85407725 -4.85407725 13.85407725 -8.0859375 14.265625 C-12.53927785 14.23522677 -15.9183894 13.97896271 -20 12 C-20.66 12 -21.32 12 -22 12 C-22 10.02 -22 8.04 -22 6 C-20.02 6 -18.04 6 -16 6 C-16 7.32 -16 8.64 -16 10 C-14.79038656 11.4206927 -14.79038656 11.4206927 -11.25 11.375 C-7.78038129 11.32525636 -7.07751539 11.05729398 -4.125 8.875 C-1.95519165 5.93937694 -0.90020186 3.5189709 0 0 Z " fill="#F29162" transform="translate(322,56)"/>
<path d="M0 0 C0.66 0 1.32 0 2 0 C2.33 0.66 2.66 1.32 3 2 C4.32 2 5.64 2 7 2 C7 3.65 7 5.3 7 7 C7.99 7.33 8.98 7.66 10 8 C10 8.66 10 9.32 10 10 C9.01 10 8.02 10 7 10 C7 11.65 7 13.3 7 15 C5.35 15 3.7 15 2 15 C2 14.34 2 13.68 2 13 C1.34 12.67 0.68 12.34 0 12 C0.99 11.67 1.98 11.34 3 11 C2.67 9.35 2.34 7.7 2 6 C0.68 6 -0.64 6 -2 6 C-1.34 4.02 -0.68 2.04 0 0 Z " fill="#EF7E41" transform="translate(52,157)"/>
<path d="M0 0 C4.51315789 2.02631579 4.51315789 2.02631579 6 5 C8.02463255 5.65213292 8.02463255 5.65213292 10 6 C9.34 7.98 8.68 9.96 8 12 C6.02 11.34 4.04 10.68 2 10 C2.33 9.34 2.66 8.68 3 8 C3.66 8 4.32 8 5 8 C2.49163607 5.12275902 0.71339063 3.24285638 -2.9375 2 C-6.77523843 2 -8.8092269 2.89699046 -12 5 C-13.40466953 7.05093145 -13.40466953 7.05093145 -14 9 C-14.66 9 -15.32 9 -16 9 C-15.72960418 5.75525016 -15.1742292 4.20795098 -13.0625 1.6875 C-8.70025908 -0.71618377 -4.87950881 -0.68104803 0 0 Z " fill="#F18A56" transform="translate(443,69)"/>
<path d="M0 0 C0.33 1.65 0.66 3.3 1 5 C-6.28571429 8.57142857 -6.28571429 8.57142857 -11 7 C-10.75 4.625 -10.75 4.625 -10 2 C-6.88390372 -0.42363044 -3.82627315 -0.17392151 0 0 Z " fill="#F2F3F3" transform="translate(198,138)"/>
<path d="M0 0 C-1.49192754 3.78010855 -3.58559193 5.49429699 -6.875 7.8125 C-7.73867188 8.43769531 -8.60234375 9.06289062 -9.4921875 9.70703125 C-12 11 -12 11 -14.3203125 10.69921875 C-14.87460937 10.46847656 -15.42890625 10.23773438 -16 10 C-14.49322669 5.97896591 -12.13434234 4.4406542 -8.5625 2.1875 C-7.11037109 1.24970703 -7.11037109 1.24970703 -5.62890625 0.29296875 C-3 -1 -3 -1 0 0 Z " fill="#EBECED" transform="translate(39,128)"/>
<path d="M0 0 C1.65 0 3.3 0 5 0 C5 0.99 5 1.98 5 3 C5.99 3.33 6.98 3.66 8 4 C8 5.32 8 6.64 8 8 C7.01 8 6.02 8 5 8 C5 8.99 5 9.98 5 11 C3.02 11 1.04 11 -1 11 C-1 10.01 -1 9.02 -1 8 C-1.66 7.67 -2.32 7.34 -3 7 C-3 5.68 -3 4.36 -3 3 C-2.01 3 -1.02 3 0 3 C0 4.32 0 5.64 0 7 C1.32 7 2.64 7 4 7 C4 5.68 4 4.36 4 3 C2.68 2.67 1.36 2.34 0 2 C0 1.34 0 0.68 0 0 Z " fill="#F1864E" transform="translate(436,75)"/>
<path d="M0 0 C0.66 0 1.32 0 2 0 C2 2.97 2 5.94 2 9 C-0.97 9 -3.94 9 -7 9 C-6 7 -5 5 -4 3 C-3.01 3 -2.02 3 -1 3 C-0.67 2.01 -0.34 1.02 0 0 Z " fill="#EF7B3B" transform="translate(68,150)"/>
<path d="M0 0 C0.99 0 1.98 0 3 0 C3.05449838 1.72880982 3.09301688 3.45812712 3.125 5.1875 C3.14820313 6.15042969 3.17140625 7.11335938 3.1953125 8.10546875 C2.9913544 11.12812778 2.26874632 13.26769985 1 16 C0.34 15.34 -0.32 14.68 -1 14 C-0.9765625 10.7421875 -0.9765625 10.7421875 -0.625 6.875 C-0.51414063 5.59367187 -0.40328125 4.31234375 -0.2890625 2.9921875 C-0.19367188 2.00476563 -0.09828125 1.01734375 0 0 Z " fill="#EE7836" transform="translate(196,81)"/>
<path d="M0 0 C2.0625 0.4375 2.0625 0.4375 4 1 C4.33 2.65 4.66 4.3 5 6 C2.625 6.625 2.625 6.625 0 7 C-0.66 6.34 -1.32 5.68 -2 5 C-1.46428571 1.46428571 -1.46428571 1.46428571 0 0 Z " fill="#FDE9E0" transform="translate(51,162)"/>
<path d="M0 0 C2.4375 0.375 2.4375 0.375 5 1 C5.33 1.66 5.66 2.32 6 3 C5.34 3.66 4.68 4.32 4 5 C4.495 5.45375 4.99 5.9075 5.5 6.375 C7 8 7 8 7 10 C5.0625 9.1875 5.0625 9.1875 3 8 C2.67 7.01 2.34 6.02 2 5 C0.68 5.33 -0.64 5.66 -2 6 C-1.34 4.02 -0.68 2.04 0 0 Z " fill="#F18650" transform="translate(426,81)"/>
<path d="M0 0 C2.72869407 0.03287583 5.2966618 0.56397771 8 1 C8 2.98 8 4.96 8 7 C5.69 7 3.38 7 1 7 C1.66 5.68 2.32 4.36 3 3 C1.35 2.67 -0.3 2.34 -2 2 C-1.34 1.34 -0.68 0.68 0 0 Z " fill="#F28D5A" transform="translate(315,46)"/>
<path d="M0 0 C-0.37994168 2.75457718 -0.8073633 3.82020574 -2.875 5.75 C-5 7 -5 7 -8 7 C-8.1875 4.625 -8.1875 4.625 -8 2 C-4.77208445 -0.1519437 -3.71599191 -0.20086443 0 0 Z " fill="#E7E8E9" transform="translate(81,198)"/>
<path d="M0 0 C2.31 0.33 4.62 0.66 7 1 C7.33 2.32 7.66 3.64 8 5 C5.39417629 5.93065133 4.35801776 6.14917407 1.75 5.0625 C1.1725 4.711875 0.595 4.36125 0 4 C0 2.68 0 1.36 0 0 Z " fill="#DDDEDF" transform="translate(411,96)"/>
<path d="M0 0 C1.98 0 3.96 0 6 0 C6 1.32 6 2.64 6 4 C6.99 4.99 7.98 5.98 9 7 C6.03 6.67 3.06 6.34 0 6 C0 4.02 0 2.04 0 0 Z " fill="#F0834B" transform="translate(300,62)"/>
<path d="M0 0 C0.12375 0.639375 0.2475 1.27875 0.375 1.9375 C0.684375 2.9584375 0.684375 2.9584375 1 4 C1.66 4.33 2.32 4.66 3 5 C2.34 5 1.68 5 1 5 C1 6.32 1 7.64 1 9 C-0.65 9.33 -2.3 9.66 -4 10 C-4 9.34 -4 8.68 -4 8 C-4.66 8 -5.32 8 -6 8 C-6 7.34 -6 6.68 -6 6 C-4.68 6 -3.36 6 -2 6 C-2 5.01 -2 4.02 -2 3 C-2.66 2.34 -3.32 1.68 -4 1 C-2.68 0.67 -1.36 0.34 0 0 Z " fill="#EF7E42" transform="translate(314,53)"/>
<path d="M0 0 C2.4164124 0.48328248 4.65832183 1.21944061 7 2 C7 3.32 7 4.64 7 6 C4.69 5.67 2.38 5.34 0 5 C-0.5625 3.0625 -0.5625 3.0625 -1 1 C-0.67 0.67 -0.34 0.34 0 0 Z " fill="#DEDFE1" transform="translate(441,107)"/>
<path d="M0 0 C2.9375 0.75 2.9375 0.75 6 2 C6.875 4.125 6.875 4.125 7 6 C4.69 5.67 2.38 5.34 0 5 C-0.5625 3.0625 -0.5625 3.0625 -1 1 C-0.67 0.67 -0.34 0.34 0 0 Z " fill="#E3E4E5" transform="translate(421,116)"/>
<path d="M0 0 C2.76276177 0.52268466 5.3260876 1.10869587 8 2 C7.67 3.32 7.34 4.64 7 6 C4.61435923 5.42415568 2.33317216 4.77772405 0 4 C0 2.68 0 1.36 0 0 Z " fill="#E7E7E8" transform="translate(423,109)"/>
<path d="M0 0 C4.75 0.875 4.75 0.875 7 2 C7 3.32 7 4.64 7 6 C4.03 5.505 4.03 5.505 1 5 C0.67 3.35 0.34 1.7 0 0 Z " fill="#E7E8E8" transform="translate(435,122)"/>
<path d="M0 0 C2.31 0.33 4.62 0.66 7 1 C7.33 2.32 7.66 3.64 8 5 C5.69 4.67 3.38 4.34 1 4 C0.67 2.68 0.34 1.36 0 0 Z " fill="#E9EAEB" transform="translate(437,115)"/>
<path d="M0 0 C2.31 0.33 4.62 0.66 7 1 C7.33 2.32 7.66 3.64 8 5 C5.69 4.67 3.38 4.34 1 4 C0.67 2.68 0.34 1.36 0 0 Z " fill="#EBEBEC" transform="translate(405,111)"/>
<path d="M0 0 C2.31 0.33 4.62 0.66 7 1 C7 2.32 7 3.64 7 5 C4.03 4.505 4.03 4.505 1 4 C0.67 2.68 0.34 1.36 0 0 Z " fill="#EDEDEE" transform="translate(408,104)"/>
<path d="M0 0 C2.97 0.495 2.97 0.495 6 1 C6.33 2.32 6.66 3.64 7 5 C4.69 4.67 2.38 4.34 0 4 C0 2.68 0 1.36 0 0 Z " fill="#EDEDEE" transform="translate(426,102)"/>
<path d="M0 0 C1.65 0 3.3 0 5 0 C5 0.99 5 1.98 5 3 C5.99 3.33 6.98 3.66 8 4 C8 5.32 8 6.64 8 8 C6.35 8.33 4.7 8.66 3 9 C3.33 7.02 3.66 5.04 4 3 C2.68 2.67 1.36 2.34 0 2 C0 1.34 0 0.68 0 0 Z " fill="#EF7E42" transform="translate(436,75)"/>
<path d="M0 0 C2.31 0 4.62 0 7 0 C7 1.32 7 2.64 7 4 C4.69 4 2.38 4 0 4 C0 2.68 0 1.36 0 0 Z " fill="#DFE0E2" transform="translate(292,80)"/>
<path d="M0 0 C2.31 0 4.62 0 7 0 C6.67 1.32 6.34 2.64 6 4 C4.02 4 2.04 4 0 4 C0 2.68 0 1.36 0 0 Z " fill="#E1E2E3" transform="translate(324,79)"/>
<path d="M0 0 C1.32 0.66 2.64 1.32 4 2 C2.576875 2.61875 2.576875 2.61875 1.125 3.25 C-2.00716624 5.0040131 -2.86500606 5.70851757 -4 9 C-4.66 9 -5.32 9 -6 9 C-5.69381595 5.32579134 -5.24228216 4.21864487 -2.4375 1.6875 C-1.633125 1.130625 -0.82875 0.57375 0 0 Z " fill="#F39467" transform="translate(433,69)"/>
<path d="M0 0 C5.875 3.625 5.875 3.625 7 7 C3.22454612 5.90931332 0.52956528 5.0916909 -2 2 C-1.34 2 -0.68 2 0 2 C0 1.34 0 0.68 0 0 Z " fill="#F18A55" transform="translate(42,177)"/>
<path d="M0 0 C3.10633303 0.93189991 5.28790442 2.19193628 8 4 C5.83032311 4.95465783 4.43671207 5.14401212 2.17578125 4.3984375 C0.4315257 3.64129615 -1.28627131 2.82390802 -3 2 C-2.01 1.34 -1.02 0.68 0 0 Z " fill="#F28C59" transform="translate(59,149)"/>
<path d="M0 0 C2.475 0.495 2.475 0.495 5 1 C5 2.32 5 3.64 5 5 C3.68 5 2.36 5 1 5 C0.67 3.35 0.34 1.7 0 0 Z " fill="#F9CDB8" transform="translate(435,77)"/>
<path d="M0 0 C1.65 0 3.3 0 5 0 C5 1.32 5 2.64 5 4 C3.02 3.34 1.04 2.68 -1 2 C-0.67 1.34 -0.34 0.68 0 0 Z " fill="#EF7E42" transform="translate(446,77)"/>
</svg>
